# xmcd
#
# Track frame offsets:
#	150
#	13319
#	30227
#	45333
#	57361
#	71393
#	85271
#	98552
#	111870
#	122882
#	132862
#	150465
#
# Disc length: 2216 seconds
#
# Revision: 1
# Processed by: cddbd v1.5.2PL0 Copyright (c) Steve Scherf et al.
# Submitted via: EZCDAudioConverter 5.5.0.1
#
DISCID=8f08a60c
DTITLE=Various Artist - La Fogata, Música para Compartir con Amigos Vol 2
DYEAR=2001
DGENRE=Latin
TTITLE0=Leo Dan - Como te extraño mi amor
TTITLE1=Leonardo Favio - Ella... ella ya me olvidó, yo la recuerdo ahora
TTITLE2=Piero - Mi viejo
TTITLE3=Los Náufragos - Te quiero ver bailar
TTITLE4=Daniel Magal - Cara de gitana
TTITLE5=Leo Dan - Te he prometido
TTITLE6=Leonardo Favio - Fuiste mia un verano
TTITLE7=Piero - Si vos te vas
TTITLE8=Los Náufragos - De boliche en boliche
TTITLE9=Safari - Estoy hecho un demonio
TTITLE10=Aldo Monges - Brindo por tu cumpleaños
TTITLE11=Piero - Canción de Magdalena
EXTD=
EXTT0=
EXTT1=
EXTT2=
EXTT3=
EXTT4=
EXTT5=
EXTT6=
EXTT7=
EXTT8=
EXTT9=
EXTT10=
EXTT11=
PLAYORDER=
